Coordinates
version=1
nRows=11
nColumns=40
inDegrees=yes

Units are S.I. units (second, meters, Newtons, ...)
If the header above contains a line with 'inDegrees', this indicates whether rotational values are in degrees (yes) or radians (no).

endheader
time	pelvis_tilt	pelvis_list	pelvis_rotation	pelvis_tx	pelvis_ty	pelvis_tz	hip_flexion_r	hip_adduction_r	hip_rotation_r	knee_angle_r	knee_angle_r_beta	ankle_angle_r	subtalar_angle_r	mtp_angle_r	hip_flexion_l	hip_adduction_l	hip_rotation_l	knee_angle_l	knee_angle_l_beta	ankle_angle_l	subtalar_angle_l	mtp_angle_l	lumbar_extension	lumbar_bending	lumbar_rotation	arm_flex_r	arm_add_r	arm_rot_r	elbow_flex_r	pro_sup_r	wrist_flex_r	wrist_dev_r	arm_flex_l	arm_add_l	arm_rot_l	elbow_flex_l	pro_sup_l	wrist_flex_l	wrist_dev_l
      7.58500000	     21.63083127	      3.10577916	   -177.38181616	      0.36932480	      0.83595086	     -0.59673398	     46.96872865	    -11.32479791	    -11.73549244	     22.38211220	      0.39064155	     -2.77034966	      0.00000000	      0.00000000	     50.06234847	    -13.78003063	     -6.39755825	     24.44867377	      0.42670985	     -3.26114146	      0.00000000	      0.00000000	    -47.62256689	     -0.24022054	      2.52928929	     51.01230558	    -19.84648026	     60.23221919	     23.37464136	     70.03828278	      0.00000000	      0.00000000	     54.05923382	     -6.17179401	     18.81803595	     14.90789335	     35.25490885	      0.00000000	      0.00000000
      7.59000000	     21.27788922	      3.05536830	   -177.33014495	      0.36878995	      0.83649368	     -0.59667652	     46.59051770	    -11.37438160	    -11.78559611	     22.46401699	      0.39207106	     -2.71644365	      0.00000000	      0.00000000	     49.63349551	    -13.73083268	     -6.43894928	     24.43392408	      0.42645242	     -3.22030171	      0.00000000	      0.00000000	    -47.58953269	     -0.24351515	      2.46920374	     50.44897985	    -19.68199429	     58.94576293	     23.43583258	     69.27824690	      0.00000000	      0.00000000	     53.84172967	     -6.19893517	     18.96195178	     14.68231704	     35.52009884	      0.00000000	      0.00000000
      7.59500000	     21.08743423	      3.03757910	   -177.28321881	      0.36840245	      0.83669044	     -0.59667612	     46.40824757	    -11.40436508	    -11.74092129	     22.58669242	      0.39421215	     -2.40134833	      0.00000000	      0.00000000	     49.44242903	    -13.70267685	     -6.39720455	     24.51378128	      0.42784620	     -3.01127375	      0.00000000	      0.00000000	    -47.35713004	     -0.23181932	      2.47288751	     49.85529169	    -19.56037665	     57.80556643	     23.45671457	     68.33004554	      0.00000000	      0.00000000	     53.68000705	     -6.11741991	     19.13551599	     14.36824637	     35.82583779	      0.00000000	      0.00000000
      7.60000000	     21.06826303	      3.19962630	   -177.06779874	      0.36813033	      0.83658431	     -0.59628050	     46.35841672	    -11.45665447	    -12.02958432	     22.70321768	      0.39624590	     -2.53537450	      0.00000000	      0.00000000	     49.56281220	    -13.61802511	     -5.93928900	     24.63571775	      0.42997439	     -2.98114145	      0.00000000	      0.00000000	    -46.91488962	      0.08627509	      2.36821245	     49.23081469	    -19.14634920	     56.28402034	     23.19889480	     66.95640516	      0.00000000	      0.00000000	     53.28853062	     -6.18505254	     19.21490436	     14.36621231	     36.23355705	      0.00000000	      0.00000000
      7.60500000	     20.59134542	      2.91644889	   -177.25818181	      0.36751699	      0.83749417	     -0.59676777	     45.87621596	    -11.43009940	    -11.53424868	     22.66072061	      0.39550419	     -2.33248817	      0.00000000	      0.00000000	     48.81493599	    -13.63826092	     -6.52952505	     24.49497562	      0.42751797	     -2.93664741	      0.00000000	      0.00000000	    -47.02313046	     -0.26958160	      2.28324903	     49.79453154	    -19.64516890	     59.94453567	     23.29735721	     69.66020651	      0.00000000	      0.00000000	     52.86906125	     -6.44772953	     19.54801691	     14.84190305	     35.95658169	      0.00000000	      0.00000000
      7.61000000	     20.42914744	      3.04983105	   -177.05356132	      0.36715269	      0.83768385	     -0.59644632	     45.63821828	    -11.46617005	    -11.77355085	     22.71723345	      0.39649052	     -2.16594529	      0.00000000	      0.00000000	     48.72615604	    -13.57083125	     -6.18092638	     24.54925348	      0.42846530	     -2.87631810	      0.00000000	      0.00000000	    -46.74535788	      0.00259456	      2.23501692	     49.61643057	    -19.73873642	     60.40713006	     23.30221889	     70.71762258	      0.00000000	      0.00000000	     52.60013326	     -6.41559229	     19.59695170	     14.74994825	     35.63257503	      0.00000000	      0.00000000
      7.61500000	     20.16568780	      3.10886980	   -176.94186635	      0.36664947	      0.83816570	     -0.59627926	     45.29252107	    -11.48026428	    -11.92827537	     22.73572418	      0.39681324	     -2.01761244	      0.00000000	      0.00000000	     48.44006622	    -13.53840326	     -6.04841349	     24.52964492	      0.42812307	     -2.78353182	      0.00000000	      0.00000000	    -46.58275296	      0.12722243	      2.24520642	     48.87396288	    -19.52904760	     58.56981084	     23.35889116	     69.15881945	      0.00000000	      0.00000000	     52.44294929	     -6.30623190	     19.59009664	     14.45723295	     35.94333381	      0.00000000	      0.00000000
      7.62000000	     19.97871793	      3.07728513	   -176.90520151	      0.36616039	      0.83856262	     -0.59624971	     45.05438450	    -11.49581649	    -11.85732329	     22.74091930	      0.39690392	     -2.05937517	      0.00000000	      0.00000000	     48.17882211	    -13.49692386	     -6.03028800	     24.48092723	      0.42727278	     -2.78168517	      0.00000000	      0.00000000	    -46.34026697	      0.13512961	      2.23224222	     48.36794752	    -19.37978709	     57.71498586	     23.19144061	     68.62988132	      0.00000000	      0.00000000	     52.19379098	     -6.23053740	     19.58650027	     14.42152505	     36.09707141	      0.00000000	      0.00000000
      7.62500000	     19.66508626	      3.25221038	   -176.77015866	      0.36556733	      0.83915287	     -0.59608974	     44.59887879	    -11.43198574	    -12.18744755	     22.70887872	      0.39634470	     -1.95241120	      0.00000000	      0.00000000	     47.91891834	    -13.56989330	     -5.81929979	     24.56012464	      0.42865504	     -2.65672099	      0.00000000	      0.00000000	    -46.22944009	      0.37340131	      2.27584357	     47.86744336	    -19.29550555	     56.79393612	     23.28664973	     67.82871247	      0.00000000	      0.00000000	     51.94887755	     -6.24003697	     19.77290723	     14.20914052	     36.30338874	      0.00000000	      0.00000000
      7.63000000	     19.43875787	      3.23316880	   -176.76820069	      0.36502115	      0.83967486	     -0.59616599	     44.26708934	    -11.38617550	    -12.06619773	     22.59412975	      0.39434196	     -1.89907613	      0.00000000	      0.00000000	     47.58949287	    -13.56517727	     -5.82279868	     24.45999531	      0.42690745	     -2.73999578	      0.00000000	      0.00000000	    -46.03187680	      0.38250314	      2.17560671	     48.18694662	    -19.64669211	     59.43613434	     23.36793264	     70.89307416	      0.00000000	      0.00000000	     51.39841702	     -6.56669955	     20.45291231	     14.71143725	     35.80058863	      0.00000000	      0.00000000
      7.63500000	     19.21412638	      3.37361115	   -176.64880302	      0.36445623	      0.84013364	     -0.59598292	     43.93668690	    -11.34859360	    -12.32349185	     22.60075275	      0.39445755	     -1.87842652	      0.00000000	      0.00000000	     47.40770568	    -13.59968611	     -5.57060371	     24.52809460	      0.42809601	     -2.64494831	      0.00000000	      0.00000000	    -45.80836040	      0.58393948	      2.20109630	     47.53632297	    -19.44676168	     58.00666216	     23.29730088	     69.80212396	      0.00000000	      0.00000000	     51.21419664	     -6.48377645	     20.51145053	     14.42377587	     35.97683021	      0.00000000	      0.00000000
